<svg width="104" height="29" viewBox="0 0 104 29" fill="none" xmlns="http://www.w3.org/2000/svg"><g clip-path="url(#clip0_1123_48)"><path d="M103.999 22.4301C103.86 22.4416 103.75 22.4577 103.639 22.4577C102.616 22.46 101.593 22.46 100.569 22.4577C100.234 22.4577 100.233 22.4546 100.11 22.1292C99.6695 20.9586 99.2296 19.788 98.7837 18.6029H91.9644C91.4762 19.8748 90.9834 21.1582 90.4929 22.4355H86.9796C87.0257 22.2996 87.0571 22.1944 87.0971 22.0923C89.1987 16.7061 91.3004 11.3199 93.4028 5.93372C93.499 5.68656 93.681 5.56272 93.9486 5.56221C94.9849 5.56221 96.0211 5.56067 97.0574 5.56221C97.3767 5.56221 97.3797 5.56528 97.498 5.86541C99.628 11.2815 101.758 16.6977 103.887 22.1146C103.923 22.2067 103.953 22.3004 103.999 22.4285V22.4301ZM92.9561 15.884H97.8296C97.0197 13.5759 96.2222 11.3023 95.4239 9.02943C95.4017 9.0325 95.3794 9.0348 95.3571 9.03787C94.5611 11.3076 93.7651 13.5774 92.9561 15.884Z" fill="#6748d8"></path><path d="M47.2567 18.6968C48.6675 14.3299 50.0776 9.96385 51.4922 5.5855H54.799C54.7937 5.86951 49.3913 22.045 49.1626 22.4703H45.0153C43.0856 16.8653 41.152 11.2511 39.2177 5.63386C39.5516 5.54635 41.8804 5.51795 42.8607 5.58473C44.2914 9.9439 45.7292 14.3246 47.1676 18.706C47.1976 18.7029 47.2275 18.6998 47.2567 18.6968Z" fill="#6748d8"></path><path d="M63.9777 22.0813C64.0844 21.0658 64.1865 20.0902 64.2932 19.0701C64.4244 19.1246 64.5288 19.1599 64.6255 19.209C65.714 19.7594 66.8692 20.0541 68.0866 20.0756C68.8135 20.0887 69.5074 19.9282 70.1346 19.5414C70.9474 19.0394 71.2883 18.205 71.0265 17.3798C70.9098 17.0137 70.6987 16.7059 70.3856 16.4956C70.0164 16.2484 69.6318 16.012 69.228 15.8285C68.5433 15.5184 67.8341 15.2613 67.1417 14.9665C66.4463 14.671 65.7808 14.321 65.1966 13.8312C64.2586 13.046 63.7942 12.0305 63.7282 10.8246C63.6868 10.067 63.7482 9.31778 63.9961 8.59394C64.4981 7.13014 65.549 6.22668 66.9728 5.72083C67.7105 5.45909 68.4766 5.3355 69.2618 5.31094C70.7425 5.26335 72.1917 5.43299 73.6471 5.90045C73.611 6.81849 73.4475 7.7304 73.3654 8.68835C73.2287 8.6423 73.1236 8.61083 73.0207 8.57245C71.9469 8.16485 70.8392 7.94916 69.6863 7.99138C69.2595 8.00673 68.8534 8.10575 68.4681 8.28767C67.5393 8.72673 67.2146 9.59872 67.273 10.4584C67.3014 10.8729 67.494 11.2306 67.8287 11.4701C68.1787 11.7211 68.5495 11.9568 68.9417 12.1333C69.6272 12.4419 70.3372 12.696 71.0334 12.98C71.7457 13.2694 72.4289 13.6125 73.0353 14.093C73.9994 14.8567 74.526 15.8523 74.6373 17.0751C74.6979 17.7421 74.6672 18.403 74.5075 19.0539C74.2028 20.3021 73.4713 21.2293 72.3583 21.8603C71.6275 22.274 70.8346 22.5189 70.0087 22.6355C68.0567 22.9111 66.1377 22.7146 64.2471 22.185C64.1635 22.1612 64.0836 22.1228 63.9777 22.0813Z" fill="#6748d8"></path><path d="M80.4578 8.246H75.6381V5.58936H88.6956V8.27363H83.8544C83.8398 9.48489 83.849 10.6555 83.8475 11.8253C83.8459 13.0135 83.8475 14.2018 83.8475 15.3892V22.4565H80.4578V8.246Z" fill="#6748d8"></path><path d="M56.9595 5.58301H60.277C60.3553 5.86932 60.3745 21.9934 60.297 22.4578H56.9602V5.58301H56.9595Z" fill="#6748d8"></path></g><path d="M9.45465 28.278C11.4918 23.6332 13.6766 19.0617 16.2573 14.6263C10.7504 13.2578 5.32346 11.8185 0 10.0185L0.0127095 9.95978C0.461778 10.0379 0.910847 10.1129 1.35931 10.194C2.88324 10.4688 4.40656 10.7454 5.93049 11.0226C7.31522 11.2744 8.69995 11.5286 10.0853 11.7804C11.3514 12.0104 12.6181 12.2392 13.8848 12.4686C14.8447 12.6423 15.8027 12.8257 16.7644 12.9879C17.2746 13.0738 17.156 13.1235 17.4302 12.6956C17.5766 12.4662 17.7104 12.2283 17.8683 12.0074C17.9876 11.8409 17.9773 11.7114 17.8586 11.5468C17.2764 10.7363 16.7009 9.92165 16.1308 9.10274C14.1051 6.18962 12.0825 3.2753 10.0593 0.361581C10.0248 0.311949 9.99329 0.260502 9.983 0.188477C10.0357 0.250213 10.0913 0.309528 10.1404 0.374291C12.609 3.65056 15.0765 6.92743 17.5445 10.2037C17.6141 10.2963 17.691 10.3835 17.8012 10.4597C17.8363 9.81149 17.7461 9.1796 17.7231 8.54529C17.7001 7.91159 17.6468 7.27848 17.6184 6.64478C17.5899 6.00078 17.5688 5.35618 17.5585 4.71158C17.5482 4.07666 17.556 3.44175 17.556 2.73662C17.9803 5.34892 18.3573 7.90069 18.7755 10.4452C18.8004 10.4513 18.8252 10.4567 18.85 10.4628C18.9166 10.381 18.9904 10.3042 19.0491 10.2176C20.2268 8.49384 21.4845 6.82938 22.8008 5.20971C23.2838 4.61534 23.7758 4.02824 24.2642 3.43811C24.2939 3.4018 24.3272 3.36911 24.3937 3.35761C24.3484 3.44175 24.306 3.52769 24.257 3.61001C22.6029 6.38936 20.9483 9.16871 19.2942 11.9481C19.2579 12.0086 19.2264 12.0721 19.1877 12.1308C19.1229 12.2295 19.1375 12.3185 19.2059 12.4087C19.4734 12.7621 19.7336 13.1217 20.0114 13.4673C20.0725 13.5435 20.1887 13.5986 20.2886 13.6174C21.2563 13.8032 22.2253 13.9811 23.1948 14.1567C24.2533 14.3485 25.3131 14.5349 26.3722 14.7256C27.4604 14.9217 28.5485 15.119 29.6367 15.3169C29.6948 15.3272 29.7517 15.3454 29.8395 15.3678C28.9159 15.3115 28.025 15.2594 27.1342 15.2025C26.2403 15.145 25.347 15.0815 24.4531 15.0216C23.5495 14.9604 22.6453 14.9011 21.7417 14.8388C21.5771 14.8273 21.4131 14.8067 21.24 14.7891C21.2472 14.8418 21.246 14.8527 21.2503 14.8618C21.2539 14.8703 21.2618 14.8781 21.2696 14.8836C21.286 14.8951 21.3029 14.906 21.3199 14.9163C21.3283 14.9211 21.338 14.9247 21.3477 14.9284C21.3574 14.932 21.3671 14.935 21.3768 14.9368C21.4064 14.9423 21.4367 14.9465 21.4657 14.9532C27.3659 16.3543 33.2662 17.7561 39.1664 19.1579C39.1761 19.1603 39.1852 19.1652 39.1936 19.17C39.2015 19.1749 39.2088 19.1815 39.2124 19.2087C33.4302 18.3898 27.7115 17.2302 21.9959 15.9676C21.9687 16.151 22.0806 16.2254 22.1472 16.3138C23.0907 17.5715 24.0379 18.8268 24.9838 20.0827C26.6518 22.2962 28.3198 24.5102 29.9871 26.7243C30.0458 26.8023 30.0967 26.8859 30.1657 26.9881C29.9986 27.0299 29.9423 26.9149 29.8764 26.8465C29.2687 26.2146 28.6448 25.5967 28.065 24.94C26.1477 22.7707 24.3944 20.4695 22.6586 18.1544C22.1085 17.4208 21.562 16.6836 21.0245 15.941C20.9041 15.7745 20.7631 15.6746 20.5658 15.6353C20.2529 15.5724 19.9412 15.5021 19.5908 15.4265C19.5908 15.5518 19.5793 15.6389 19.5926 15.7219C19.9291 17.8893 20.2674 20.0567 20.6063 22.2235C20.852 23.7942 21.0984 25.3648 21.3435 26.9355C21.3513 26.9875 21.3447 27.0414 21.3447 27.1334C21.2115 27.0384 21.1964 26.9276 21.1674 26.8278C20.7225 25.3013 20.2559 23.7803 19.8419 22.2453C19.2755 20.1451 18.8464 18.0146 18.5117 15.8647C18.4838 15.6855 18.4524 15.5076 18.4239 15.3284C18.4027 15.1977 18.3428 15.1214 18.2006 15.0839C17.533 14.9066 17.533 14.9011 17.1754 15.5027C14.6904 19.6754 12.206 23.8487 9.72155 28.0213C9.66163 28.1218 9.59687 28.2199 9.53454 28.3191C9.5073 28.3046 9.47946 28.2907 9.45223 28.2761L9.45465 28.278Z" fill="#6748d8"></path><defs><clipPath id="clip0_1123_48"><rect width="64.7857" height="17.4566" fill="#6748d8" transform="translate(39.2144 5.30371)"></rect></clipPath></defs></svg>
