<svg class="relative -top-[1px] mr-auto block translate-x-2 xl:hidden" width="103" height="28" viewBox="0 0 103 28" fill="none" xmlns="http://www.w3.org/2000/svg"><g clip-path="url(#clip0_1548_2466)"><path d="M102.999 22.0969C102.862 22.1083 102.753 22.1243 102.644 22.1243C101.63 22.1265 100.617 22.1265 99.6028 22.1243C99.2706 22.1243 99.2698 22.1212 99.1482 21.7989C98.7118 20.6396 98.2762 19.4803 97.8345 18.3065H91.0808C90.5973 19.5662 90.1093 20.8372 89.6235 22.1022H86.144C86.1897 21.9677 86.2208 21.8635 86.2604 21.7624C88.3418 16.428 90.4233 11.0936 92.5055 5.75924C92.6008 5.51445 92.7809 5.39181 93.046 5.3913C94.0723 5.3913 95.0986 5.38978 96.1248 5.3913C96.4411 5.3913 96.4441 5.39434 96.5612 5.69158C98.6708 11.0556 100.78 16.4197 102.889 21.7845C102.925 21.8757 102.955 21.9684 102.999 22.0954V22.0969ZM92.063 15.6138H96.8896C96.0876 13.3279 95.2977 11.0761 94.5071 8.82517C94.4851 8.82821 94.463 8.83049 94.441 8.83353C93.6526 11.0815 92.8643 13.3294 92.063 15.6138Z" fill="black"></path><path d="M46.8037 18.3974C48.201 14.0726 49.5975 9.74852 50.9985 5.41228H54.2735C54.2682 5.69356 48.9179 21.7135 48.6913 22.1346H44.5839C42.6727 16.5836 40.7578 11.0234 38.842 5.46018C39.1727 5.37351 41.4792 5.34539 42.45 5.41152C43.867 9.72875 45.2909 14.0673 46.7155 18.4065C46.7452 18.4035 46.7748 18.4005 46.8037 18.3974Z" fill="black"></path><path d="M63.3631 21.7515C63.4688 20.7457 63.5699 19.7795 63.6756 18.7692C63.8056 18.8231 63.9089 18.8581 64.0047 18.9068C65.0827 19.4518 66.2268 19.7438 67.4325 19.765C68.1524 19.778 68.8397 19.6191 69.4608 19.2359C70.2658 18.7388 70.6034 17.9124 70.3441 17.0952C70.2286 16.7326 70.0195 16.4277 69.7093 16.2194C69.3437 15.9746 68.9628 15.7405 68.563 15.5588C67.8848 15.2517 67.1824 14.997 66.4967 14.7051C65.808 14.4124 65.1488 14.0657 64.5703 13.5807C63.6414 12.803 63.1814 11.7973 63.116 10.603C63.075 9.85267 63.1358 9.1107 63.3814 8.39382C63.8785 6.9441 64.9193 6.04934 66.3295 5.54836C67.06 5.28913 67.8187 5.16673 68.5964 5.14241C70.0628 5.09528 71.4981 5.26328 72.9395 5.72625C72.9037 6.63546 72.7418 7.53859 72.6605 8.48733C72.5252 8.44172 72.421 8.41055 72.3191 8.37254C71.2556 7.96887 70.1586 7.75525 69.0168 7.79706C68.5941 7.81226 68.192 7.91033 67.8103 8.0905C66.8905 8.52534 66.5689 9.38894 66.6267 10.2404C66.6548 10.6509 66.8456 11.0051 67.1771 11.2423C67.5237 11.4909 67.8909 11.7243 68.2794 11.8991C68.9583 12.2048 69.6615 12.4564 70.351 12.7377C71.0564 13.0243 71.733 13.3641 72.3336 13.84C73.2884 14.5964 73.8099 15.5824 73.9201 16.7934C73.9802 17.454 73.9498 18.1085 73.7917 18.7532C73.4899 19.9893 72.7654 20.9076 71.6631 21.5325C70.9394 21.9423 70.1541 22.1848 69.3361 22.3003C67.4029 22.5732 65.5023 22.3786 63.63 21.8541C63.5471 21.8305 63.468 21.7925 63.3631 21.7515Z" fill="black"></path><path d="M79.6847 8.04808H74.9114V5.41699H87.8433V8.07544H83.0487C83.0342 9.27505 83.0433 10.4344 83.0418 11.5929C83.0403 12.7697 83.0418 13.9465 83.0418 15.1226V22.1218H79.6847V8.04808Z" fill="black"></path><path d="M56.4133 5.41309H59.699C59.7765 5.69664 59.7955 21.6656 59.7187 22.1255H56.4141V5.41309H56.4133Z" fill="black"></path></g><path d="M9.36369 27.8896C11.3812 23.2895 13.545 18.7619 16.1008 14.3693C10.647 13.0139 5.27225 11.5885 0 9.80576L0.0125872 9.74761C0.457336 9.82494 0.902084 9.89927 1.34623 9.9796C2.8555 10.2517 4.36417 10.5257 5.87344 10.8002C7.24484 11.0496 8.61625 11.3014 9.98826 11.5507C11.2422 11.7785 12.4967 12.0051 13.7512 12.2323C14.7019 12.4043 15.6507 12.5859 16.6031 12.7466C17.1084 12.8317 16.9909 12.8809 17.2625 12.4571C17.4075 12.2299 17.54 11.9943 17.6964 11.7755C17.8145 11.6107 17.8043 11.4824 17.6868 11.3193C17.1102 10.5167 16.5402 9.70985 15.9756 8.89881C13.9694 6.01372 11.9662 3.12744 9.96248 0.241751C9.92832 0.192598 9.89715 0.141645 9.88696 0.0703125C9.93911 0.131455 9.99425 0.1902 10.0428 0.254339C12.4877 3.49909 14.9314 6.74444 17.3758 9.98919C17.4447 10.0809 17.5208 10.1672 17.6299 10.2427C17.6647 9.60075 17.5753 8.97494 17.5526 8.34673C17.5298 7.71912 17.4771 7.09211 17.4489 6.4645C17.4207 5.8267 17.3997 5.1883 17.3895 4.5499C17.3793 3.92109 17.3871 3.29228 17.3871 2.59394C17.8073 5.18111 18.1807 7.70833 18.5949 10.2284C18.6195 10.2344 18.6441 10.2398 18.6686 10.2457C18.7346 10.1648 18.8077 10.0887 18.8658 10.003C20.0323 8.29578 21.2778 6.64733 22.5815 5.04324C23.0598 4.45459 23.5471 3.87314 24.0308 3.28869C24.0602 3.25272 24.0931 3.22035 24.1591 3.20896C24.1141 3.29228 24.0722 3.3774 24.0236 3.45893C22.3855 6.21154 20.7467 8.96415 19.1086 11.7168C19.0726 11.7767 19.0415 11.8396 19.0031 11.8978C18.939 11.9955 18.9534 12.0836 19.0211 12.1729C19.286 12.523 19.5438 12.8791 19.8189 13.2213C19.8794 13.2969 19.9945 13.3514 20.0934 13.37C21.0518 13.554 22.0114 13.7303 22.9717 13.9041C24.02 14.0941 25.0695 14.2788 26.1185 14.4676C27.1962 14.6618 28.2739 14.8572 29.3516 15.0532C29.4091 15.0634 29.4655 15.0814 29.5524 15.1036C28.6377 15.0478 27.7554 14.9963 26.8731 14.9399C25.9878 14.883 25.1031 14.82 24.2178 14.7607C23.3229 14.7002 22.4274 14.6414 21.5325 14.5797C21.3695 14.5683 21.2071 14.5479 21.0356 14.5305C21.0428 14.5827 21.0416 14.5935 21.0458 14.6024C21.0494 14.6108 21.0572 14.6186 21.065 14.624C21.0812 14.6354 21.098 14.6462 21.1148 14.6564C21.1231 14.6612 21.1327 14.6648 21.1423 14.6684C21.1519 14.672 21.1615 14.675 21.1711 14.6768C21.2005 14.6822 21.2304 14.6864 21.2592 14.693C27.1027 16.0807 32.9461 17.469 38.7896 18.8572C38.7992 18.8596 38.8082 18.8644 38.8166 18.8692C38.8244 18.874 38.8316 18.8806 38.8352 18.9076C33.1086 18.0966 27.4449 16.948 21.7843 15.6976C21.7573 15.8792 21.8682 15.953 21.9341 16.0405C22.8686 17.2861 23.8066 18.5294 24.7435 19.7732C26.3954 21.9653 28.0473 24.1581 29.6986 26.3508C29.7568 26.4281 29.8071 26.5109 29.8755 26.6122C29.71 26.6535 29.6543 26.5396 29.5889 26.4719C28.9872 25.8461 28.3692 25.2341 27.795 24.5837C25.8961 22.4353 24.1597 20.1562 22.4406 17.8634C21.8958 17.1369 21.3545 16.4068 20.8223 15.6712C20.703 15.5064 20.5633 15.4075 20.3679 15.3685C20.058 15.3062 19.7493 15.2367 19.4023 15.1617C19.4023 15.2858 19.3909 15.3721 19.4041 15.4542C19.7374 17.6008 20.0724 19.7474 20.4081 21.8934C20.6514 23.4489 20.8954 25.0045 21.1381 26.56C21.1459 26.6116 21.1393 26.6649 21.1393 26.756C21.0075 26.6619 20.9925 26.5522 20.9637 26.4533C20.5232 24.9415 20.061 23.4351 19.651 21.915C19.09 19.8349 18.665 17.7249 18.3336 15.5957C18.306 15.4183 18.2748 15.242 18.2467 15.0646C18.2257 14.9351 18.1664 14.8596 18.0255 14.8224C17.3644 14.6468 17.3644 14.6414 17.0101 15.2373C14.549 19.3698 12.0885 23.5029 9.62802 27.6354C9.56868 27.7349 9.50455 27.832 9.44281 27.9303C9.41584 27.9159 9.38826 27.9021 9.36129 27.8878L9.36369 27.8896Z" fill="#6748D8"></path><defs><clipPath id="clip0_1548_2466"><rect width="64.1624" height="17.2887" fill="#ffffff" transform="translate(38.8376 5.13477)"></rect></clipPath></defs></svg>
