<svg width="64" height="64" viewBox="0 0 64 64" fill="none" xmlns="http://www.w3.org/2000/svg">
<g clip-path="url(#clip0_10822_2685)">
<path d="M48.8079 16.3286C48.2507 15.9419 47.3849 16.0057 46.8877 16.4603L43.6903 19.3711C43.1931 19.83 43.2317 20.5311 43.776 20.9263C43.776 20.9263 48.705 24.5297 48.705 32.2677C48.705 40.0057 43.5188 43.83 43.5188 43.83C42.9916 44.2592 42.9745 44.9816 43.476 45.4405L46.6434 48.3088C47.1363 48.7592 48.0107 48.8272 48.5679 48.4447C48.5679 48.4447 56.0042 43.4051 56.0042 32.2932C56.0042 21.1813 48.8079 16.3286 48.8079 16.3286Z" fill="#FF3D00"/>
<path d="M18.0252 34.7365C18.0252 34.7365 17.1037 34.6516 17.1037 35.3867C17.1037 39.5807 20.2454 42.568 25.1701 42.568C28.8304 42.568 30.3949 41.6969 32.6108 40.0482C33.1251 39.6615 33.6737 39.3045 34.0938 39.755C34.3809 40.0652 38.2641 43.6388 38.2641 43.6388C38.7527 44.0892 38.6156 44.6331 38.097 45.0708C37.5826 45.5042 31.775 50 25.1058 50C16.3707 50 8 46.2139 8 31.966C8 20.4844 14.532 14 24.1072 14C34.4024 14 40.2143 21.1601 40.2143 30.8144V33.2578C40.2143 34.2521 39.4042 34.7365 38.7313 34.7365H18.0252ZM30.2791 24.9419C29.2933 22.8513 27.2317 21.296 24.1072 21.296C20.9826 21.296 18.9295 22.8513 17.9352 24.9419C17.3651 26.2252 17.1508 27.1728 17.0822 28.7195H31.1321C31.0592 27.1686 30.8449 26.221 30.2791 24.9419Z" fill="#FFFFFF"/>
</g>
<defs>
<clipPath id="clip0_10822_2685">
<rect width="48" height="36" fill="white" transform="translate(8 14)"/>
</clipPath>
</defs>
</svg>
