<svg width="205" height="78" viewBox="0 0 205 78" fill="none" xmlns="http://www.w3.org/2000/svg">
<g clip-path="url(#clip0_6027_1206)">
<path d="M76.0708 70.6958C73.3955 70.3284 73.1456 69.9758 73.1456 69.1529C73.1456 68.1095 74.0569 67.5805 75.865 67.5805C77.3937 67.5805 79.7016 67.8744 79.7163 67.8744L80.1131 67.9185L80.1866 66.5666L79.8486 66.5225C79.7604 66.5225 77.6436 66.2286 75.865 66.2286C73.1309 66.2286 71.558 67.3013 71.558 69.1822C71.558 71.3571 73.2191 71.7244 75.7474 72.033C78.6579 72.4151 78.9666 72.709 78.9666 73.6642C78.9666 75.0455 78.0993 75.5598 75.7915 75.5598C74.6449 75.5598 72.2195 75.2365 72.2048 75.2365L71.852 75.1924L71.6315 76.5443L72.0137 76.5884C72.1166 76.5884 74.542 76.8823 75.8209 76.8823C77.8494 76.8823 80.5541 76.5443 80.5541 73.5613C80.5541 71.4159 78.849 71.0632 76.0708 70.6664V70.6958Z" fill="black"/>
<path d="M89.0652 66.2725C85.4198 66.2725 84.0086 67.7126 84.0086 71.4303C84.0086 75.1481 84.7877 77.0144 89.0652 77.0144C93.3428 77.0144 94.0631 74.9865 94.0631 71.4891C94.0337 67.8889 92.4902 66.2725 89.0652 66.2725ZM89.0652 67.595C91.5201 67.595 92.4755 68.6677 92.4755 71.4156C92.4461 74.4575 92.1374 75.6037 89.0652 75.6037C85.993 75.6037 85.5667 74.6485 85.5667 71.3863C85.5667 68.3738 86.287 67.595 89.0652 67.595Z" fill="black"/>
<path d="M103.809 61.9084C103.809 61.9084 102.486 61.8497 101.692 61.8497C99.2666 61.8497 98.4435 62.8048 98.4435 65.6262V66.4344H96.8706V67.7864H98.4435V76.7943H99.9722V67.7864H103.676V66.4344H99.9722V65.6556C99.9722 63.422 100.472 63.2016 101.707 63.2016C102.354 63.2016 103.794 63.231 103.794 63.231H104.176V61.9231H103.823L103.809 61.9084Z" fill="black"/>
<path d="M113.466 75.4866H113.128C113.128 75.4866 113.055 75.4866 112.937 75.5013C112.511 75.5453 111.35 75.6482 110.835 75.6482C109.365 75.6482 109.101 75.4131 109.101 72.4741V67.7865H113.261V66.4346H109.101V63.2899H107.572V66.4346H105.764V67.7865H107.572V73.1942C107.572 76.045 108.395 77.0001 110.865 77.0001C111.658 77.0001 113.172 76.8385 113.231 76.8385L113.599 76.7944L113.466 75.4719V75.4866Z" fill="black"/>
<path d="M130.68 66.4343L127.872 75.0896L124.638 66.6254H123.256L119.978 75.0896L117.171 66.4343H115.554L118.876 76.8089H120.978L123.888 68.8884L126.814 76.8089H128.916L132.311 66.4343H130.68Z" fill="black"/>
<path d="M145.394 75.6478C144.468 75.5303 144.159 75.3392 144.056 75.2217C144.056 75.2217 143.968 75.1776 143.997 74.869C143.997 74.2371 144.012 69.623 144.012 69.623C144.012 67.3747 142.763 66.2432 140.293 66.2432C138.456 66.2432 135.957 66.5958 135.854 66.6105L135.501 66.6546L135.648 68.0065L136.016 67.9625C136.016 67.9625 138.676 67.6392 140.293 67.6392C141.822 67.6392 142.483 68.2417 142.483 69.6377V70.3136L138.456 70.681C136.089 70.8867 134.942 71.9154 134.942 73.8404C134.942 75.7654 136.177 77.0292 138.235 77.0292C139.808 77.0292 141.351 76.7646 142.851 76.2944C143.38 76.7793 144.203 77.0292 145.32 77.0292H145.673L145.747 75.7213L145.408 75.6772L145.394 75.6478ZM142.454 71.6656V74.9719C141.778 75.1629 139.984 75.6184 138.265 75.6184C137.147 75.6184 136.53 74.9719 136.53 73.7963C136.53 73.0909 136.75 72.1358 138.588 72.0035L142.454 71.6802V71.6656Z" fill="black"/>
<path d="M154.89 66.2434C153.096 66.5226 151.568 67.2426 150.788 67.6688V66.4344H149.26V76.809H150.788V69.153C151.376 68.8444 153.229 67.9186 155.007 67.6247L155.316 67.5806V66.1846L154.89 66.2434Z" fill="black"/>
<path d="M166.87 71.254C166.87 67.9036 165.326 66.2578 162.137 66.2578C158.947 66.2578 157.139 68.0653 157.139 71.6067C157.139 74.2518 157.697 76.9556 161.798 76.9556C163.46 76.9556 166.032 76.794 166.047 76.794L166.414 76.7646L166.341 75.4127L165.973 75.4421C165.973 75.4421 163.415 75.6037 161.828 75.6037C159.696 75.6037 158.8 74.6485 158.726 72.2386H166.855V71.254H166.87ZM162.137 67.595C164.283 67.595 165.194 68.5208 165.268 70.8867H158.741C158.844 68.6384 159.932 67.595 162.137 67.595Z" fill="black"/>
<path fill-rule="evenodd" clip-rule="evenodd" d="M80.7893 36.0016C80.5541 35.8987 80.363 35.7665 80.1278 35.6783C85.9636 33.3124 85.5079 21.5125 80.8481 18.3384C79.1136 17.1628 76.159 16.6926 72.7781 16.3987C64.6199 16.3693 55.756 16.2665 49.9203 16.4281C47.0392 21.5713 40.9977 33.0479 40.9977 33.0479C40.9977 33.0479 40.1451 32.6806 32.2368 16.4281C22.1676 16.1342 9.08504 13.7096 4.26359 20.2634C1.82347 23.6433 0.912102 29.9914 1.0003 36.4571C1.13259 44.5246 1.16199 51.6075 6.60082 55.0166C12.0102 58.1907 20.7271 56.589 27.092 56.1335C27.1949 54.1937 27.0332 52.3569 27.1508 50.4319C13.9359 53.3855 6.88011 51.4458 7.0124 41.5856C7.1447 31.7254 7.1741 26.8026 9.51132 23.7902C12.4953 19.9549 23.4171 21.8946 28.459 21.8505C32.619 29.4624 35.9705 35.1199 38.293 39.9104C38.4547 40.072 38.2342 49.0506 38.1019 56.5008H43.8788V39.4842C47.098 33.621 53.5511 21.4831 53.5511 21.4831L72.0431 21.4537C72.0431 21.4537 74.7331 21.586 76.4089 22.5411C77.9229 23.3934 78.408 25.0686 78.408 25.0686C78.5256 25.9209 78.5697 26.7879 78.5403 27.6549C78.4815 28.5807 78.3492 29.5065 78.1434 30.4029C78.1434 30.4029 77.1879 32.1368 76.306 32.7246C75.424 33.3418 73.9099 33.7092 72.0725 33.6357C68.9562 33.6945 67.9713 33.6945 63.488 33.6651V23.4081H57.7111V56.78C70.6026 57.1474 85.4491 58.8814 85.6549 46.1851C85.6549 39.9839 84.1114 38.6173 80.7746 35.9869L80.7893 36.0016ZM78.9813 48.5509C77.9964 50.6523 75.2035 51.0491 72.1019 51.2401C69.3531 51.4311 66.1927 51.2107 63.4733 51.0784V38.8818C68.8827 38.8818 69.9999 38.9111 72.1607 38.8818C73.5719 38.8524 75.0859 38.8524 76.5853 39.4696C77.8935 40.028 79.0842 41.0713 79.4076 41.9236C79.7016 42.8347 79.9956 47.3607 78.9813 48.5509ZM88.83 56.5449H113.555V51.1078H94.6069V39.2344H110.35V33.7974H94.6069V21.924H113.555V16.4869H88.83V56.5449ZM122.536 16.4281H116.759V56.5596H138.926V51.1225H122.565C122.536 39.5577 122.521 27.9929 122.536 16.4428V16.4281ZM166.502 16.4281H141.778V56.5596H166.502V51.1225H147.555V39.2491H163.298V33.8121H147.555V21.9387C153.89 21.8799 160.181 21.8799 166.502 21.8799V16.4281Z" fill="black"/>
<path fill-rule="evenodd" clip-rule="evenodd" d="M184.769 12.1088C184.752 12.0668 184.733 12.0263 184.71 11.9858C184.7 11.966 184.688 11.9454 184.677 11.9255C183.45 9.47816 181.758 7.23554 179.63 5.34129C179.025 4.80167 178.383 4.28981 177.708 3.8105C177.491 3.65575 177.27 3.50498 177.046 3.35737C175.33 2.22971 173.518 1.37028 171.656 0.76955C170.009 0.238654 168.467 1.82182 169.041 3.45339C169.466 4.65882 169.778 5.89917 169.975 7.16015C170.115 8.04498 170.197 8.93695 170.221 9.83368C170.248 10.8185 170.206 11.8097 170.093 12.7953C170.082 12.8445 170.077 12.8968 170.075 12.9484C170.074 13.0127 170.082 13.0762 170.097 13.1373C170.132 13.2722 170.205 13.3984 170.313 13.4968C170.324 13.5055 170.334 13.515 170.345 13.5238C170.351 13.5301 170.358 13.5341 170.366 13.5388C170.377 13.5476 170.386 13.5571 170.396 13.569C170.45 13.6468 170.454 13.7523 170.399 13.8356C170.387 13.8539 170.375 13.869 170.36 13.8825C170.339 13.9007 170.318 13.9198 170.301 13.9412C170.286 13.9594 170.273 13.9785 170.259 13.9999C170.039 14.3356 170.132 14.7871 170.468 15.0093C170.549 15.0617 170.635 15.0966 170.723 15.1141C170.858 15.1411 170.996 15.1291 171.123 15.0823C171.155 15.0704 171.184 15.0569 171.215 15.0403C174.657 13.4881 178.479 12.8889 182.251 13.3293C182.664 13.377 183.076 13.4389 183.488 13.5127C183.509 13.5158 183.53 13.5214 183.553 13.5261C183.595 13.5365 183.638 13.5428 183.68 13.5468C184.06 13.5872 184.448 13.419 184.673 13.0778C184.868 12.781 184.892 12.4191 184.769 12.1088Z" fill="#0A74D6"/>
<path fill-rule="evenodd" clip-rule="evenodd" d="M188.825 14.7759C188.87 14.7743 188.916 14.7759 188.962 14.7807C188.984 14.7838 189.007 14.7854 189.031 14.787C191.762 14.9441 194.493 15.6099 197.076 16.813C197.812 17.155 198.535 17.5415 199.242 17.9724C199.47 18.1105 199.697 18.2541 199.92 18.4009C201.635 19.5286 203.142 20.8538 204.431 22.3267C205.571 23.6281 204.728 25.6724 203.002 25.7922C201.728 25.8803 200.465 26.0842 199.23 26.4024C198.363 26.6246 197.511 26.9032 196.678 27.2365C195.762 27.6023 194.87 28.0324 194.01 28.5276C193.968 28.5578 193.922 28.5832 193.878 28.6038C193.819 28.6292 193.758 28.649 193.695 28.6578C193.557 28.68 193.411 28.6625 193.278 28.6006C193.266 28.5943 193.253 28.5887 193.241 28.5824C193.234 28.5776 193.226 28.5752 193.219 28.5705C193.207 28.5633 193.193 28.5586 193.18 28.5554C193.087 28.5371 192.988 28.5736 192.934 28.657C192.922 28.6752 192.914 28.6927 192.907 28.7109C192.898 28.7379 192.888 28.7633 192.875 28.7887C192.865 28.8093 192.853 28.8308 192.839 28.8498C192.619 29.1855 192.166 29.2783 191.83 29.0585C191.751 29.0061 191.683 28.9403 191.632 28.8649C191.555 28.7522 191.509 28.6205 191.504 28.4856C191.502 28.4522 191.502 28.4181 191.505 28.3848C191.566 24.609 190.603 20.8618 188.703 17.574C188.494 17.2145 188.275 16.859 188.046 16.5106C188.034 16.4924 188.02 16.4749 188.009 16.4567C187.983 16.4225 187.959 16.3845 187.938 16.3472C187.751 16.0147 187.751 15.5917 187.975 15.2497C188.17 14.9513 188.493 14.7846 188.825 14.7759Z" fill="#FFA91F"/>
<path fill-rule="evenodd" clip-rule="evenodd" d="M184.197 14.9308C184.152 14.9006 184.104 14.8752 184.056 14.853C184.006 14.8308 183.955 14.8125 183.904 14.7975C183.883 14.7911 183.864 14.7856 183.843 14.7792C179.393 13.2603 174.483 14.0158 170.706 16.7147C170.691 16.725 170.674 16.7354 170.658 16.7465C170.569 16.8004 170.489 16.875 170.427 16.9687C170.373 17.0512 170.338 17.1409 170.321 17.2337C170.294 17.3774 170.312 17.5258 170.369 17.6599C170.381 17.6884 170.396 17.717 170.412 17.7456C170.444 17.7979 170.471 17.8535 170.486 17.9138C170.52 18.0566 170.513 18.2074 170.459 18.3487C170.447 18.3772 170.432 18.4042 170.414 18.4296C170.411 18.436 170.407 18.4399 170.402 18.4463C170.382 18.4749 170.366 18.505 170.353 18.536C170.238 18.7804 170.269 19.0669 170.427 19.2795C170.446 19.3049 170.467 19.3303 170.489 19.3533C170.539 19.4025 170.581 19.4597 170.611 19.5232C170.695 19.7033 170.704 19.9144 170.626 20.1048C170.608 20.1485 170.582 20.189 170.554 20.2263C170.543 20.2397 170.533 20.2548 170.522 20.2699C170.513 20.285 170.504 20.3001 170.495 20.3151C170.34 20.5913 170.384 20.9302 170.589 21.1579C170.613 21.1849 170.64 21.2103 170.669 21.2341C170.706 21.2658 170.742 21.3 170.77 21.3404C170.9 21.5293 170.935 21.7721 170.86 21.9912C170.845 22.0348 170.823 22.0737 170.796 22.111C170.791 22.1181 170.785 22.1261 170.781 22.1316C170.762 22.1586 170.746 22.1888 170.733 22.2173C170.685 22.3165 170.662 22.4229 170.661 22.5276C170.661 22.6577 170.695 22.7871 170.762 22.9006C170.785 22.9411 170.812 22.9784 170.846 23.0149C170.866 23.0387 170.889 23.0617 170.915 23.0823C171.033 23.1839 171.115 23.322 171.146 23.4751V23.4767C171.161 23.5577 171.159 23.6418 171.141 23.7227C171.134 23.7568 171.127 23.7933 171.126 23.8275C171.119 23.9156 171.129 24.0044 171.154 24.0901C171.165 24.1274 171.18 24.1639 171.196 24.1981C171.252 24.3131 171.338 24.4155 171.453 24.4901C171.502 24.5234 171.554 24.5488 171.609 24.5679C171.646 24.5814 171.685 24.5917 171.726 24.5996C171.81 24.6147 171.892 24.6472 171.963 24.6972C171.972 24.7036 171.981 24.7091 171.99 24.7171C172.246 24.9139 172.339 25.2583 172.227 25.5551C172.2 25.5971 172.179 25.6408 172.161 25.6852C172.094 25.8606 172.099 26.051 172.166 26.2209C172.193 26.2851 172.227 26.347 172.272 26.4026C172.319 26.4613 172.374 26.5121 172.441 26.5558C172.68 26.7129 172.978 26.7121 173.211 26.574C173.226 26.5653 173.241 26.5558 173.256 26.5454C173.271 26.5351 173.286 26.5248 173.301 26.5169C173.529 26.3939 173.817 26.397 174.048 26.5486C174.255 26.6851 174.37 26.9081 174.377 27.139C174.377 27.1589 174.375 27.1779 174.373 27.1977C174.372 27.2176 174.37 27.2366 174.37 27.2565C174.363 27.5636 174.51 27.8683 174.785 28.0485C175.193 28.3167 175.734 28.2191 176.024 27.8358C176.036 27.8191 176.049 27.8024 176.06 27.785C176.072 27.7651 176.083 27.7461 176.095 27.7263C176.106 27.7064 176.118 27.6874 176.129 27.6675C176.468 27.1263 176.815 26.5867 177.167 26.051C179.374 22.6935 181.773 19.539 184.34 16.5893C184.356 16.5711 184.373 16.5536 184.387 16.537C184.411 16.51 184.435 16.483 184.458 16.4528C184.473 16.433 184.486 16.414 184.5 16.3925C184.819 15.9069 184.684 15.2514 184.197 14.9324V14.9308Z" fill="#66C44F"/>
<path fill-rule="evenodd" clip-rule="evenodd" d="M186.462 16.4196C186.508 16.4497 186.55 16.4822 186.59 16.5187C186.631 16.5545 186.666 16.5933 186.701 16.6354C186.715 16.6521 186.728 16.6687 186.742 16.683C189.899 20.1676 191.151 24.975 190.169 29.5142C190.164 29.5325 190.162 29.5515 190.16 29.5713C190.145 29.6745 190.109 29.7785 190.047 29.8713C189.993 29.9538 189.924 30.0229 189.847 30.0753C189.725 30.1578 189.582 30.1998 189.437 30.1998C189.405 30.1998 189.374 30.1983 189.341 30.1935C189.28 30.1864 189.218 30.1832 189.158 30.1919C189.014 30.2157 188.878 30.2832 188.77 30.3895C188.748 30.4101 188.729 30.4363 188.713 30.4633C188.709 30.4697 188.705 30.4752 188.702 30.48C188.682 30.5085 188.662 30.5355 188.64 30.5609C188.461 30.7649 188.185 30.849 187.929 30.7887C187.897 30.7815 187.866 30.772 187.836 30.7601C187.77 30.7347 187.703 30.7165 187.632 30.7149C187.433 30.7085 187.236 30.7855 187.091 30.9323C187.057 30.9656 187.03 31.0061 187.008 31.0466C186.999 31.0617 186.99 31.0783 186.98 31.0934C186.969 31.1085 186.96 31.122 186.95 31.1371C186.757 31.3878 186.429 31.4823 186.139 31.3846C186.104 31.3727 186.071 31.3592 186.038 31.341C185.994 31.3188 185.948 31.2989 185.9 31.2902C185.675 31.245 185.438 31.31 185.266 31.464C185.232 31.4942 185.205 31.5315 185.18 31.5703C185.175 31.5775 185.171 31.5854 185.167 31.5926C185.148 31.6211 185.128 31.6465 185.106 31.6703C185.034 31.7529 184.946 31.8171 184.85 31.8592C184.73 31.9116 184.598 31.9314 184.467 31.9147C184.421 31.9084 184.375 31.8981 184.329 31.883C184.299 31.8727 184.269 31.8608 184.241 31.8473C184.1 31.7783 183.941 31.7576 183.788 31.7917H183.787C183.706 31.81 183.63 31.8441 183.563 31.8933C183.534 31.914 183.504 31.9322 183.473 31.9489C183.395 31.9893 183.31 32.0163 183.222 32.0266C183.183 32.0314 183.144 32.033 183.105 32.0314C182.977 32.0251 182.85 31.9878 182.735 31.9132C182.685 31.8798 182.64 31.8425 182.603 31.8005C182.576 31.7703 182.55 31.7394 182.528 31.706C182.481 31.6338 182.419 31.5727 182.345 31.5275C182.336 31.5211 182.325 31.5156 182.316 31.5108C182.035 31.3537 181.681 31.4045 181.455 31.6259C181.426 31.6679 181.394 31.7037 181.362 31.7386C181.228 31.8703 181.05 31.9409 180.868 31.9457C180.798 31.9473 180.727 31.9386 180.658 31.9203C180.586 31.9005 180.517 31.8695 180.451 31.8275C180.211 31.6703 180.095 31.3942 180.129 31.1275C180.132 31.1093 180.133 31.0918 180.137 31.0752C180.141 31.0569 180.145 31.0394 180.146 31.0228C180.168 30.7649 180.053 30.5022 179.821 30.3498C179.614 30.2133 179.364 30.1967 179.149 30.2824C179.131 30.2895 179.115 30.299 179.096 30.3078C179.08 30.3165 179.062 30.326 179.044 30.3332C178.766 30.4617 178.427 30.4474 178.152 30.2673C177.744 29.9991 177.62 29.4634 177.857 29.0452C177.867 29.027 177.878 29.0095 177.89 28.9912C177.902 28.9714 177.916 28.9539 177.931 28.9357C177.946 28.9174 177.958 28.9 177.971 28.8817C178.334 28.3556 178.691 27.8247 179.045 27.2875C181.251 23.9299 183.199 20.4771 184.889 16.952C184.899 16.9314 184.909 16.9084 184.917 16.8862C184.932 16.8528 184.949 16.8203 184.965 16.7886C184.977 16.7679 184.989 16.7465 185.002 16.7259C185.32 16.2354 185.974 16.1005 186.462 16.4203L186.462 16.4196Z" fill="#F34620"/>
</g>
<defs>
<clipPath id="clip0_6027_1206">
<rect width="205" height="78" fill="white"/>
</clipPath>
</defs>
</svg>
