<svg width="205" height="78" viewBox="0 0 205 78" fill="none" xmlns="http://www.w3.org/2000/svg">
<g clip-path="url(#clip0_6027_1224)">
<path d="M75.9688 70.6957C73.2971 70.3284 73.0476 69.9757 73.0476 69.1528C73.0476 68.1095 73.9577 67.5804 75.7633 67.5804C77.29 67.5804 79.5947 67.8743 79.6094 67.8743L80.0057 67.9184L80.0791 66.5665L79.7415 66.5224C79.6534 66.5224 77.5395 66.2285 75.7633 66.2285C73.0329 66.2285 71.4622 67.3012 71.4622 69.1822C71.4622 71.357 73.121 71.7244 75.6459 72.033C78.5524 72.415 78.8607 72.7089 78.8607 73.6641C78.8607 75.0454 77.9946 75.5597 75.6899 75.5597C74.5449 75.5597 72.1228 75.2364 72.1081 75.2364L71.7558 75.1923L71.5356 76.5443L71.9173 76.5883C72.02 76.5883 74.4422 76.8822 75.7193 76.8822C77.7451 76.8822 80.4461 76.5443 80.4461 73.5612C80.4461 71.4158 78.7433 71.0631 75.9688 70.6663V70.6957Z" fill="white"/>
<path d="M88.9456 66.2725C85.305 66.2725 83.8958 67.7126 83.8958 71.4303C83.8958 75.1481 84.6738 77.0144 88.9456 77.0144C93.2173 77.0144 93.9366 74.9865 93.9366 71.4891C93.9073 67.8889 92.3659 66.2725 88.9456 66.2725ZM88.9456 67.595C91.397 67.595 92.3512 68.6677 92.3512 71.4156C92.3219 74.4575 92.0136 75.6037 88.9456 75.6037C85.8775 75.6037 85.4518 74.6485 85.4518 71.3863C85.4518 68.3738 86.1711 67.595 88.9456 67.595Z" fill="white"/>
<path d="M103.669 61.9084C103.669 61.9084 102.348 61.8496 101.555 61.8496C99.133 61.8496 98.311 62.8048 98.311 65.6262V66.4344H96.7403V67.7863H98.311V76.7942H99.8377V67.7863H103.537V66.4344H99.8377V65.6556C99.8377 63.422 100.337 63.2015 101.57 63.2015C102.216 63.2015 103.654 63.2309 103.654 63.2309H104.036V61.9231H103.684L103.669 61.9084Z" fill="white"/>
<path d="M113.313 75.4867H112.976C112.976 75.4867 112.902 75.4867 112.785 75.5014C112.359 75.5455 111.2 75.6484 110.686 75.6484C109.218 75.6484 108.954 75.4132 108.954 72.4743V67.7867H113.108V66.4347H108.954V63.29H107.427V66.4347H105.621V67.7867H107.427V73.1943C107.427 76.0451 108.249 77.0003 110.715 77.0003C111.508 77.0003 113.02 76.8386 113.079 76.8386L113.446 76.7946L113.313 75.472V75.4867Z" fill="white"/>
<path d="M130.503 66.4346L127.699 75.0898L124.47 66.6256H123.09L119.817 75.0898L117.013 66.4346H115.398L118.716 76.8091H120.815L123.721 68.8886L126.643 76.8091H128.742L132.133 66.4346H130.503Z" fill="white"/>
<path d="M145.197 75.6478C144.273 75.5303 143.964 75.3392 143.862 75.2217C143.862 75.2217 143.774 75.1776 143.803 74.869C143.803 74.2371 143.818 69.623 143.818 69.623C143.818 67.3747 142.57 66.2432 140.104 66.2432C138.269 66.2432 135.773 66.5958 135.67 66.6105L135.318 66.6546L135.465 68.0065L135.832 67.9625C135.832 67.9625 138.489 67.6392 140.104 67.6392C141.63 67.6392 142.291 68.2417 142.291 69.6377V70.3136L138.269 70.681C135.905 70.8867 134.76 71.9154 134.76 73.8404C134.76 75.7654 135.993 77.0292 138.049 77.0292C139.619 77.0292 141.161 76.7646 142.658 76.2944C143.186 76.7793 144.008 77.0292 145.124 77.0292H145.476L145.55 75.7213L145.212 75.6772L145.197 75.6478ZM142.262 71.6656V74.9719C141.586 75.1629 139.795 75.6184 138.078 75.6184C136.962 75.6184 136.346 74.9719 136.346 73.7963C136.346 73.0909 136.566 72.1358 138.401 72.0035L142.262 71.6802V71.6656Z" fill="white"/>
<path d="M154.68 66.2433C152.89 66.5225 151.363 67.2426 150.585 67.6687V66.4344H149.058V76.8089H150.585V69.1529C151.172 68.8443 153.022 67.9186 154.798 67.6247L155.106 67.5806V66.1846L154.68 66.2433Z" fill="white"/>
<path d="M166.644 71.254C166.644 67.9036 165.103 66.2578 161.918 66.2578C158.732 66.2578 156.927 68.0653 156.927 71.6067C156.927 74.2518 157.484 76.9556 161.58 76.9556C163.239 76.9556 165.808 76.794 165.822 76.794L166.189 76.7646L166.116 75.4127L165.749 75.4421C165.749 75.4421 163.195 75.6037 161.609 75.6037C159.481 75.6037 158.585 74.6485 158.512 72.2386H166.63V71.254H166.644ZM161.918 67.595C164.061 67.595 164.971 68.5208 165.044 70.8867H158.527C158.629 68.6384 159.716 67.595 161.918 67.595Z" fill="white"/>
<path fill-rule="evenodd" clip-rule="evenodd" d="M80.6809 36.0016C80.446 35.8987 80.2552 35.7665 80.0203 35.6783C85.8481 33.3124 85.393 21.5125 80.7396 18.3384C79.0074 17.1628 76.0569 16.6926 72.6806 16.3987C64.5334 16.3693 55.6816 16.2665 49.8538 16.4281C46.9767 21.5713 40.9434 33.0479 40.9434 33.0479C40.9434 33.0479 40.0919 32.6806 32.1943 16.4281C22.1388 16.1342 9.07405 13.7096 4.25915 20.2634C1.82235 23.6433 0.912214 29.9914 1.00029 36.4571C1.13241 44.5246 1.16177 51.6075 6.5932 55.0166C11.9953 58.1907 20.7003 56.589 27.0565 56.1335C27.1593 54.1937 26.9978 52.3569 27.1152 50.4319C13.9183 53.3855 6.87211 51.4458 7.00423 41.5856C7.13634 31.7254 7.1657 26.8026 9.49975 23.7902C12.4797 19.9549 23.3866 21.8946 28.4217 21.8505C32.576 29.4624 35.923 35.1199 38.2423 39.9104C38.4038 40.072 38.1836 49.0506 38.0515 56.5008H43.8205V39.4842C47.0354 33.621 53.4797 21.4831 53.4797 21.4831L71.9466 21.4537C71.9466 21.4537 74.6329 21.586 76.3064 22.5411C77.8184 23.3934 78.3028 25.0686 78.3028 25.0686C78.4203 25.9209 78.4643 26.7879 78.4349 27.6549C78.3762 28.5807 78.2441 29.5065 78.0386 30.4029C78.0386 30.4029 77.0844 32.1368 76.2036 32.7246C75.3229 33.3418 73.8109 33.7092 71.9759 33.6357C68.8639 33.6945 67.8803 33.6945 63.4031 33.6651V23.4081H57.634V56.78C70.508 57.1474 85.3343 58.8814 85.5398 46.1851C85.5398 39.9839 83.9985 38.6173 80.6662 35.9869L80.6809 36.0016ZM78.8753 48.5509C77.8918 50.6523 75.1027 51.0491 72.0053 51.2401C69.2602 51.4311 66.1041 51.2107 63.3884 51.0784V38.8818C68.7905 38.8818 69.9061 38.9111 72.064 38.8818C73.4732 38.8524 74.9852 38.8524 76.4826 39.4696C77.789 40.028 78.9781 41.0713 79.301 41.9236C79.5946 42.8347 79.8882 47.3607 78.8753 48.5509ZM88.7106 56.5449H113.402V51.1078H94.4797V39.2344H110.201V33.7974H94.4797V21.924H113.402V16.4869H88.7106V56.5449ZM122.371 16.4281H116.602V56.5596H138.739V51.1225H122.4C122.371 39.5577 122.356 27.9929 122.371 16.4428V16.4281ZM166.277 16.4281H141.586V56.5596H166.277V51.1225H147.355V39.2491H163.077V33.8121H147.355V21.9387C153.682 21.8799 159.965 21.8799 166.277 21.8799V16.4281Z" fill="white"/>
<path fill-rule="evenodd" clip-rule="evenodd" d="M184.796 12.2768C184.78 12.2347 184.761 12.1943 184.738 12.1538C184.727 12.134 184.715 12.1133 184.704 12.0935C183.479 9.64613 181.789 7.40351 179.665 5.50926C179.06 4.96964 178.419 4.45778 177.745 3.97847C177.528 3.82372 177.308 3.67295 177.084 3.52534C175.371 2.39768 173.561 1.53825 171.701 0.937519C170.057 0.406622 168.516 1.98979 169.09 3.62136C169.514 4.82679 169.825 6.06714 170.023 7.32812C170.162 8.21294 170.244 9.10491 170.268 10.0016C170.295 10.9865 170.253 11.9776 170.141 12.9632C170.129 13.0124 170.124 13.0648 170.122 13.1164C170.121 13.1807 170.129 13.2442 170.145 13.3053C170.179 13.4402 170.252 13.5663 170.36 13.6648C170.37 13.6735 170.381 13.683 170.392 13.6917C170.398 13.6981 170.405 13.702 170.412 13.7068C170.424 13.7155 170.433 13.7251 170.443 13.737C170.496 13.8147 170.501 13.9203 170.446 14.0036C170.434 14.0219 170.422 14.0369 170.407 14.0504C170.386 14.0687 170.365 14.0877 170.348 14.1091C170.333 14.1274 170.32 14.1464 170.306 14.1679C170.086 14.5036 170.179 14.9551 170.515 15.1773C170.595 15.2297 170.681 15.2646 170.769 15.282C170.904 15.309 171.042 15.2971 171.169 15.2503C171.201 15.2384 171.23 15.2249 171.26 15.2082C174.698 13.656 178.515 13.0569 182.282 13.4973C182.694 13.5449 183.105 13.6068 183.517 13.6806C183.538 13.6838 183.559 13.6894 183.581 13.6941C183.623 13.7044 183.667 13.7108 183.709 13.7147C184.088 13.7552 184.475 13.587 184.7 13.2457C184.895 12.949 184.919 12.5871 184.796 12.2768Z" fill="#0A74D6"/>
<path fill-rule="evenodd" clip-rule="evenodd" d="M188.847 14.9439C188.892 14.9423 188.938 14.9439 188.983 14.9486C189.005 14.9518 189.028 14.9534 189.052 14.955C191.78 15.1121 194.507 15.7779 197.086 16.9809C197.822 17.323 198.543 17.7094 199.25 18.1404C199.477 18.2784 199.704 18.4221 199.926 18.5689C201.639 19.6965 203.144 21.0218 204.432 22.4947C205.57 23.7961 204.728 25.8403 203.005 25.9602C201.732 26.0482 200.471 26.2522 199.238 26.5704C198.372 26.7926 197.52 27.0712 196.689 27.4045C195.775 27.7703 194.883 28.2004 194.024 28.6956C193.982 28.7257 193.937 28.7511 193.893 28.7718C193.834 28.7972 193.773 28.817 193.71 28.8257C193.572 28.848 193.427 28.8305 193.294 28.7686C193.282 28.7622 193.268 28.7567 193.257 28.7503C193.249 28.7456 193.241 28.7432 193.234 28.7384C193.222 28.7313 193.209 28.7265 193.196 28.7234C193.103 28.7051 193.004 28.7416 192.95 28.8249C192.938 28.8432 192.93 28.8607 192.923 28.8789C192.914 28.9059 192.905 28.9313 192.891 28.9567C192.881 28.9773 192.869 28.9987 192.856 29.0178C192.635 29.3535 192.184 29.4463 191.848 29.2265C191.768 29.1741 191.701 29.1082 191.65 29.0329C191.573 28.9202 191.528 28.7884 191.522 28.6535C191.52 28.6202 191.52 28.5861 191.524 28.5527C191.584 24.777 190.623 21.0297 188.725 17.742C188.516 17.3825 188.298 17.027 188.069 16.6786C188.057 16.6603 188.043 16.6429 188.031 16.6246C188.006 16.5905 187.982 16.5524 187.961 16.5151C187.774 16.1826 187.774 15.7597 187.998 15.4176C188.193 15.1192 188.515 14.9526 188.847 14.9439Z" fill="#FFA91F"/>
<path fill-rule="evenodd" clip-rule="evenodd" d="M184.225 15.0988C184.18 15.0686 184.132 15.0432 184.084 15.021C184.035 14.9988 183.983 14.9805 183.932 14.9654C183.912 14.9591 183.892 14.9535 183.871 14.9472C179.428 13.4283 174.524 14.1838 170.752 16.8827C170.737 16.893 170.721 16.9033 170.705 16.9144C170.615 16.9684 170.535 17.043 170.474 17.1366C170.42 17.2192 170.385 17.3088 170.368 17.4017C170.341 17.5453 170.359 17.6937 170.416 17.8278C170.427 17.8564 170.443 17.885 170.459 17.9135C170.491 17.9659 170.518 18.0215 170.533 18.0818C170.567 18.2246 170.56 18.3754 170.506 18.5166C170.494 18.5452 170.479 18.5722 170.461 18.5976C170.458 18.6039 170.454 18.6079 170.449 18.6143C170.429 18.6428 170.413 18.673 170.4 18.7039C170.285 18.9484 170.316 19.2348 170.473 19.4475C170.493 19.4729 170.514 19.4983 170.536 19.5213C170.585 19.5705 170.627 19.6276 170.657 19.6911C170.741 19.8713 170.75 20.0824 170.672 20.2728C170.654 20.3165 170.629 20.3569 170.6 20.3942C170.59 20.4077 170.58 20.4228 170.569 20.4379C170.56 20.453 170.55 20.468 170.542 20.4831C170.387 20.7593 170.431 21.0981 170.636 21.3259C170.66 21.3529 170.687 21.3783 170.715 21.4021C170.752 21.4338 170.789 21.4679 170.817 21.5084C170.946 21.6973 170.981 21.9401 170.906 22.1591C170.891 22.2028 170.869 22.2417 170.842 22.2789C170.837 22.2861 170.832 22.294 170.827 22.2996C170.809 22.3266 170.793 22.3567 170.779 22.3853C170.732 22.4845 170.709 22.5908 170.707 22.6956C170.707 22.8257 170.741 22.9551 170.808 23.0686C170.832 23.109 170.859 23.1463 170.892 23.1828C170.912 23.2066 170.935 23.2296 170.961 23.2503C171.079 23.3519 171.161 23.4899 171.191 23.6431V23.6447C171.206 23.7256 171.205 23.8097 171.187 23.8907C171.179 23.9248 171.173 23.9613 171.172 23.9954C171.165 24.0835 171.175 24.1724 171.2 24.2581C171.21 24.2954 171.225 24.3319 171.242 24.366C171.298 24.4811 171.383 24.5835 171.498 24.6581C171.547 24.6914 171.599 24.7168 171.654 24.7358C171.691 24.7493 171.73 24.7596 171.771 24.7676C171.855 24.7827 171.937 24.8152 172.008 24.8652C172.016 24.8715 172.026 24.8771 172.034 24.885C172.29 25.0818 172.383 25.4262 172.271 25.723C172.244 25.7651 172.224 25.8087 172.206 25.8532C172.138 26.0286 172.143 26.219 172.21 26.3888C172.237 26.4531 172.271 26.515 172.317 26.5706C172.363 26.6293 172.418 26.6801 172.485 26.7237C172.724 26.8808 173.022 26.8801 173.254 26.742C173.269 26.7332 173.284 26.7237 173.299 26.7134C173.314 26.7031 173.329 26.6928 173.344 26.6848C173.572 26.5618 173.859 26.565 174.09 26.7166C174.297 26.8531 174.412 27.0761 174.418 27.307C174.418 27.3268 174.416 27.3459 174.415 27.3657C174.413 27.3856 174.412 27.4046 174.412 27.4244C174.405 27.7316 174.551 28.0363 174.826 28.2164C175.233 28.4846 175.774 28.387 176.063 28.0037C176.075 27.9871 176.088 27.9704 176.099 27.953C176.111 27.9331 176.122 27.9141 176.134 27.8942C176.145 27.8744 176.157 27.8553 176.168 27.8355C176.507 27.2943 176.853 26.7547 177.205 26.219C179.409 22.8614 181.805 19.707 184.367 16.7573C184.384 16.7391 184.401 16.7216 184.415 16.7049C184.439 16.678 184.463 16.651 184.486 16.6208C184.501 16.601 184.514 16.5819 184.528 16.5605C184.846 16.0748 184.711 15.4194 184.225 15.1003V15.0988Z" fill="#66C44F"/>
<path fill-rule="evenodd" clip-rule="evenodd" d="M186.487 16.5875C186.532 16.6177 186.575 16.6502 186.615 16.6867C186.655 16.7224 186.691 16.7613 186.726 16.8034C186.739 16.82 186.753 16.8367 186.766 16.851C189.919 20.3355 191.17 25.143 190.189 29.6822C190.184 29.7004 190.182 29.7195 190.18 29.7393C190.165 29.8425 190.129 29.9464 190.067 30.0393C190.014 30.1218 189.945 30.1909 189.867 30.2432C189.746 30.3258 189.603 30.3678 189.458 30.3678C189.426 30.3678 189.395 30.3662 189.362 30.3615C189.301 30.3543 189.239 30.3512 189.179 30.3599C189.036 30.3837 188.899 30.4511 188.792 30.5575C188.769 30.5781 188.751 30.6043 188.735 30.6313C188.731 30.6376 188.727 30.6432 188.724 30.6479C188.704 30.6765 188.684 30.7035 188.662 30.7289C188.483 30.9328 188.208 31.017 187.952 30.9566C187.92 30.9495 187.889 30.94 187.859 30.9281C187.793 30.9027 187.726 30.8844 187.655 30.8828C187.456 30.8765 187.26 30.9535 187.115 31.1003C187.082 31.1336 187.055 31.1741 187.032 31.2146C187.024 31.2296 187.014 31.2463 187.004 31.2614C186.994 31.2765 186.984 31.2899 186.974 31.305C186.782 31.5558 186.454 31.6502 186.164 31.5526C186.13 31.5407 186.097 31.5272 186.063 31.509C186.02 31.4867 185.974 31.4669 185.925 31.4582C185.701 31.4129 185.464 31.478 185.292 31.632C185.259 31.6621 185.231 31.6994 185.207 31.7383C185.202 31.7454 185.198 31.7534 185.193 31.7605C185.175 31.7891 185.154 31.8145 185.133 31.8383C185.061 31.9208 184.973 31.9851 184.877 32.0272C184.757 32.0795 184.626 32.0994 184.495 32.0827C184.448 32.0764 184.402 32.0661 184.357 32.051C184.327 32.0407 184.297 32.0288 184.269 32.0153C184.128 31.9462 183.97 31.9256 183.817 31.9597H183.815C183.734 31.978 183.658 32.0121 183.592 32.0613C183.563 32.0819 183.533 32.1002 183.502 32.1168C183.425 32.1573 183.339 32.1843 183.251 32.1946C183.212 32.1994 183.173 32.201 183.135 32.1994C183.007 32.193 182.88 32.1557 182.765 32.0811C182.715 32.0478 182.67 32.0105 182.633 31.9684C182.606 31.9383 182.581 31.9073 182.559 31.874C182.511 31.8018 182.449 31.7407 182.376 31.6955C182.367 31.6891 182.356 31.6836 182.347 31.6788C182.066 31.5217 181.712 31.5725 181.486 31.7939C181.458 31.8359 181.426 31.8716 181.394 31.9065C181.261 32.0383 181.082 32.1089 180.901 32.1137C180.83 32.1152 180.76 32.1065 180.691 32.0883C180.619 32.0684 180.55 32.0375 180.484 31.9954C180.245 31.8383 180.129 31.5621 180.162 31.2955C180.165 31.2772 180.167 31.2598 180.171 31.2431C180.174 31.2249 180.178 31.2074 180.18 31.1907C180.202 30.9328 180.087 30.6702 179.855 30.5178C179.648 30.3813 179.398 30.3646 179.184 30.4503C179.165 30.4575 179.15 30.467 179.131 30.4757C179.115 30.4845 179.097 30.494 179.079 30.5011C178.801 30.6297 178.463 30.6154 178.188 30.4353C177.781 30.167 177.657 29.6314 177.894 29.2132C177.904 29.1949 177.914 29.1775 177.927 29.1592C177.939 29.1394 177.952 29.1219 177.967 29.1037C177.982 29.0854 177.994 29.068 178.008 29.0497C178.37 28.5236 178.726 27.9927 179.08 27.4554C181.284 24.0978 183.229 20.645 184.916 17.12C184.926 17.0994 184.936 17.0764 184.944 17.0541C184.96 17.0208 184.976 16.9883 184.992 16.9565C185.004 16.9359 185.016 16.9145 185.029 16.8938C185.347 16.4034 185.999 16.2685 186.487 16.5883L186.487 16.5875Z" fill="#F34620"/>
</g>
<defs>
<clipPath id="clip0_6027_1224">
<rect width="205" height="78" fill="white"/>
</clipPath>
</defs>
</svg>
